<svg width="38.000000" height="40.000000" viewBox="0 0 38 40" fill="none" xmlns="http://www.w3.org/2000/svg" xmlns:xlink="http://www.w3.org/1999/xlink">
	<desc>
			Created with Pixso.
	</desc>
	<defs>
		<clipPath id="clip7_8555">
			<rect id="CheckBoxOutlineBlankOutlined" rx="0.000000" width="19.000000" height="19.000000" transform="translate(9.500000 10.500000)" fill="white" fill-opacity="0"/>
		</clipPath>
		<clipPath id="clip1_23799">
			<rect id="&lt;Checkbox&gt;" rx="0.000000" width="37.000000" height="39.000000" transform="translate(0.500000 0.500000)" fill="white" fill-opacity="0"/>
		</clipPath>
	</defs>
	<g clip-path="url(#clip1_23799)">
		<rect id="Padding" rx="18.500000" width="37.000000" height="37.000000" transform="translate(0.500000 1.500000)" fill="#FFFFFF" fill-opacity="0"/>
		<g clip-path="url(#clip7_8555)">
			<path id="Vector" d="M24.83 14.16L24.83 25.83L13.16 25.83L13.16 14.16L24.83 14.16ZM24.83 12.5L13.16 12.5C12.25 12.5 11.5 13.25 11.5 14.16L11.5 25.83C11.5 26.75 12.25 27.5 13.16 27.5L24.83 27.5C25.75 27.5 26.5 26.75 26.5 25.83L26.5 14.16C26.5 13.25 25.75 12.5 24.83 12.5Z" fill="#000000" fill-opacity="0.600000" fill-rule="evenodd"/>
		</g>
	</g>
	</svg>
