<svg width="20.000000" height="20.000000" viewBox="0 0 20 20" fill="none" xmlns="http://www.w3.org/2000/svg" xmlns:xlink="http://www.w3.org/1999/xlink">
	<desc>
			Created with Pixso.
	</desc>
	<defs/>
	<path id="Vector" d="M9.55 12.31C9.67 12.43 9.83 12.5 10 12.5C10.16 12.5 10.32 12.43 10.44 12.31L13.72 9.03C13.78 8.97 13.82 8.9 13.85 8.83C13.89 8.75 13.9 8.67 13.9 8.59C13.9 8.51 13.89 8.43 13.85 8.35C13.82 8.27 13.78 8.2 13.72 8.15C13.66 8.09 13.59 8.04 13.52 8.01C13.44 7.98 13.36 7.96 13.28 7.96C13.19 7.96 13.11 7.98 13.04 8.01C12.96 8.04 12.89 8.09 12.83 8.15L10.62 10.36L10.62 3.12C10.62 2.95 10.55 2.79 10.44 2.68C10.32 2.56 10.16 2.49 10 2.49C9.83 2.49 9.67 2.56 9.55 2.68C9.44 2.79 9.37 2.95 9.37 3.12L9.37 10.36L7.16 8.15C7.1 8.09 7.03 8.04 6.95 8.01C6.88 7.98 6.8 7.96 6.71 7.96C6.55 7.96 6.39 8.03 6.27 8.15C6.15 8.26 6.09 8.42 6.09 8.59C6.09 8.75 6.15 8.91 6.27 9.03L9.55 12.31Z" fill="#000000" fill-opacity="0.560000" fill-rule="nonzero"/>
	<path id="Vector" d="M17.5 10C17.33 10 17.17 10.06 17.05 10.18C16.94 10.3 16.87 10.45 16.87 10.62L16.87 16.25L3.12 16.25L3.12 10.62C3.12 10.45 3.05 10.3 2.94 10.18C2.82 10.06 2.66 10 2.5 10C2.33 10 2.17 10.06 2.05 10.18C1.94 10.3 1.87 10.45 1.87 10.62L1.87 16.25C1.87 16.58 2 16.89 2.24 17.13C2.47 17.36 2.79 17.49 3.12 17.5L16.87 17.5C17.2 17.49 17.52 17.36 17.75 17.13C17.99 16.89 18.12 16.58 18.12 16.25L18.12 10.62C18.12 10.45 18.05 10.3 17.94 10.18C17.82 10.06 17.66 10 17.5 10Z" fill="#000000" fill-opacity="0.560000" fill-rule="nonzero"/>
</svg>
