<svg width="20.000000" height="20.000000" viewBox="0 0 20 20" fill="none" xmlns="http://www.w3.org/2000/svg" xmlns:xlink="http://www.w3.org/1999/xlink">
	<desc>
			Created with Pixso.
	</desc>
	<defs/>
	<path id="Vector" d="M3.75 16.87C3.58 16.87 3.42 16.81 3.3 16.69C3.19 16.57 3.12 16.41 3.12 16.25L3.12 12.76C3.12 12.67 3.14 12.59 3.17 12.52C3.2 12.44 3.25 12.37 3.3 12.31L12.68 2.94C12.8 2.82 12.95 2.76 13.12 2.76C13.29 2.76 13.44 2.82 13.56 2.94L17.05 6.43C17.17 6.55 17.24 6.71 17.24 6.87C17.24 7.04 17.17 7.2 17.05 7.31L7.5 16.87L3.75 16.87Z" stroke="#000000" stroke-opacity="0.560000" stroke-width="1.500000" stroke-linejoin="round"/>
	<path id="Vector" d="M10.62 5L15 9.37" stroke="#000000" stroke-opacity="0.560000" stroke-width="1.500000" stroke-linejoin="round" stroke-linecap="round"/>
</svg>
