<svg width="20.000000" height="20.000000" viewBox="0 0 20 20" fill="none" xmlns="http://www.w3.org/2000/svg" xmlns:xlink="http://www.w3.org/1999/xlink">
	<desc>
			Created with Pixso.
	</desc>
	<defs/>
	<path id="Vector" d="M5 12.5C3.61 12.5 2.5 11.38 2.5 10C2.5 8.62 3.61 7.5 5 7.5C6.38 7.5 7.5 8.62 7.5 10C7.5 11.38 6.38 12.5 5 12.5Z" stroke="#000000" stroke-opacity="0.560000" stroke-width="1.500000" stroke-linejoin="round"/>
	<path id="Vector" d="M13.75 18.12C12.36 18.12 11.25 17 11.25 15.62C11.25 14.24 12.36 13.12 13.75 13.12C15.13 13.12 16.25 14.24 16.25 15.62C16.25 17 15.13 18.12 13.75 18.12Z" stroke="#000000" stroke-opacity="0.560000" stroke-width="1.500000" stroke-linejoin="round"/>
	<path id="Vector" d="M13.75 6.87C12.36 6.87 11.25 5.75 11.25 4.37C11.25 2.99 12.36 1.87 13.75 1.87C15.13 1.87 16.25 2.99 16.25 4.37C16.25 5.75 15.13 6.87 13.75 6.87Z" stroke="#000000" stroke-opacity="0.560000" stroke-width="1.500000" stroke-linejoin="round"/>
	<path id="Vector" d="M11.64 5.72L7.1 8.65" stroke="#000000" stroke-opacity="0.560000" stroke-width="1.500000" stroke-linejoin="round" stroke-linecap="round"/>
	<path id="Vector" d="M7.1 11.35L11.64 14.27" stroke="#000000" stroke-opacity="0.560000" stroke-width="1.500000" stroke-linejoin="round" stroke-linecap="round"/>
</svg>
