<svg width="20.000000" height="20.000000" viewBox="0 0 20 20" fill="none" xmlns="http://www.w3.org/2000/svg" xmlns:xlink="http://www.w3.org/1999/xlink">
	<desc>
			Created with Pixso.
	</desc>
	<defs/>
	<path id="Vector" d="M16.87 4.37L3.12 4.37" stroke="#000000" stroke-opacity="0.560000" stroke-width="1.500000" stroke-linejoin="round" stroke-linecap="round"/>
	<path id="Vector" d="M8.12 8.12L8.12 13.12" stroke="#000000" stroke-opacity="0.560000" stroke-width="1.500000" stroke-linejoin="round" stroke-linecap="round"/>
	<path id="Vector" d="M11.87 8.12L11.87 13.12" stroke="#000000" stroke-opacity="0.560000" stroke-width="1.500000" stroke-linejoin="round" stroke-linecap="round"/>
	<path id="Vector" d="M15.62 4.37L15.62 16.25C15.62 16.41 15.55 16.57 15.44 16.69C15.32 16.81 15.16 16.87 15 16.87L5 16.87C4.83 16.87 4.67 16.81 4.55 16.69C4.44 16.57 4.37 16.41 4.37 16.25L4.37 4.37" stroke="#000000" stroke-opacity="0.560000" stroke-width="1.500000" stroke-linejoin="round" stroke-linecap="round"/>
	<path id="Vector" d="M13.12 4.37L13.12 3.12C13.12 2.79 12.99 2.47 12.75 2.24C12.52 2 12.2 1.87 11.87 1.87L8.12 1.87C7.79 1.87 7.47 2 7.24 2.24C7 2.47 6.87 2.79 6.87 3.12L6.87 4.37" stroke="#000000" stroke-opacity="0.560000" stroke-width="1.500000" stroke-linejoin="round" stroke-linecap="round"/>
</svg>
