<svg width="18.125000" height="13.750000" viewBox="0 0 18.125 13.75" fill="none" xmlns="http://www.w3.org/2000/svg" xmlns:xlink="http://www.w3.org/1999/xlink">
	<desc>
			Created with Pixso.
	</desc>
	<defs/>
	<path id="Union" d="M3.75 13.12C3.75 13.47 3.47 13.75 3.12 13.75C2.77 13.75 2.5 13.47 2.5 13.12L2.5 2.13L1.06 3.56C0.82 3.81 0.42 3.81 0.18 3.56C-0.07 3.32 -0.07 2.92 0.18 2.68L2.68 0.18L2.69 0.17C2.74 0.11 2.81 0.07 2.88 0.04C2.95 0.01 3.04 0 3.12 0C3.2 0 3.29 0.01 3.36 0.04C3.43 0.07 3.5 0.12 3.56 0.18L6.06 2.68C6.31 2.92 6.31 3.32 6.06 3.56C5.82 3.81 5.42 3.81 5.18 3.56L3.75 2.13L3.75 13.12ZM8.12 1.87C8.12 1.52 8.4 1.25 8.75 1.25L17.5 1.25C17.84 1.25 18.12 1.52 18.12 1.87C18.12 2.22 17.84 2.5 17.5 2.5L8.75 2.5C8.4 2.5 8.12 2.22 8.12 1.87ZM8.12 5.62C8.12 5.27 8.4 5 8.75 5L15 5C15.34 5 15.62 5.27 15.62 5.62C15.62 5.97 15.34 6.25 15 6.25L8.75 6.25C8.4 6.25 8.12 5.97 8.12 5.62ZM8.75 8.75C8.4 8.75 8.12 9.02 8.12 9.37C8.12 9.72 8.4 10 8.75 10L12.5 10C12.84 10 13.12 9.72 13.12 9.37C13.12 9.02 12.84 8.75 12.5 8.75L8.75 8.75ZM8.12 13.12C8.12 12.77 8.4 12.5 8.75 12.5L10 12.5C10.34 12.5 10.62 12.77 10.62 13.12C10.62 13.47 10.34 13.75 10 13.75L8.75 13.75C8.4 13.75 8.12 13.47 8.12 13.12Z" fill="#707070" fill-opacity="1.000000" fill-rule="evenodd"/>
</svg>
