<svg width="20.000000" height="20.000000" viewBox="0 0 20 20" fill="none" xmlns="http://www.w3.org/2000/svg" xmlns:xlink="http://www.w3.org/1999/xlink">
	<desc>
			Created with Pixso.
	</desc>
	<defs/>
	<path id="Vector" d="M7.16 6.84L9.37 4.63L9.37 11.87C9.37 12.04 9.44 12.19 9.55 12.31C9.67 12.43 9.83 12.5 10 12.5C10.16 12.5 10.32 12.43 10.44 12.31C10.55 12.19 10.62 12.04 10.62 11.87L10.62 4.63L12.83 6.84C12.89 6.9 12.96 6.95 13.04 6.98C13.11 7.01 13.19 7.02 13.28 7.02C13.36 7.02 13.44 7.01 13.52 6.98C13.59 6.94 13.66 6.9 13.72 6.84C13.78 6.78 13.82 6.71 13.85 6.64C13.89 6.56 13.9 6.48 13.9 6.4C13.9 6.32 13.89 6.24 13.85 6.16C13.82 6.08 13.78 6.02 13.72 5.96L10.44 2.68C10.32 2.56 10.16 2.49 10 2.49C9.83 2.49 9.67 2.56 9.55 2.68L6.27 5.96C6.21 6.02 6.17 6.08 6.14 6.16C6.1 6.24 6.09 6.32 6.09 6.4C6.09 6.48 6.1 6.56 6.14 6.64C6.17 6.71 6.21 6.78 6.27 6.84C6.33 6.9 6.4 6.94 6.47 6.98C6.55 7.01 6.63 7.02 6.71 7.02C6.8 7.02 6.88 7.01 6.95 6.98C7.03 6.95 7.1 6.9 7.16 6.84Z" fill="#000000" fill-opacity="0.560000" fill-rule="nonzero"/>
	<path id="Vector" d="M17.5 10C17.33 10 17.17 10.06 17.05 10.18C16.94 10.3 16.87 10.45 16.87 10.62L16.87 16.25L3.12 16.25L3.12 10.62C3.12 10.45 3.05 10.3 2.94 10.18C2.82 10.06 2.66 10 2.5 10C2.33 10 2.17 10.06 2.05 10.18C1.94 10.3 1.87 10.45 1.87 10.62L1.87 16.25C1.87 16.58 2 16.89 2.24 17.13C2.47 17.36 2.79 17.49 3.12 17.5L16.87 17.5C17.2 17.49 17.52 17.36 17.75 17.13C17.99 16.89 18.12 16.58 18.12 16.25L18.12 10.62C18.12 10.45 18.05 10.3 17.94 10.18C17.82 10.06 17.66 10 17.5 10Z" fill="#000000" fill-opacity="0.560000" fill-rule="nonzero"/>
</svg>
