<svg width="20.000000" height="20.000000" viewBox="0 0 20 20" fill="none" xmlns="http://www.w3.org/2000/svg" xmlns:xlink="http://www.w3.org/1999/xlink">
	<desc>
			Created with Pixso.
	</desc>
	<defs/>
	<path id="Subtract" d="M20 10C20 15.52 15.52 20 10 20C4.47 20 0 15.52 0 10C0 4.47 4.47 0 10 0C15.52 0 20 4.47 20 10ZM15.03 6.21C14.67 5.84 14.07 5.84 13.71 6.21C13.7 6.22 13.69 6.23 13.68 6.24L9.34 11.77L6.72 9.15C6.36 8.78 5.77 8.78 5.4 9.15C5.03 9.52 5.03 10.11 5.4 10.47L8.71 13.78C9.07 14.15 9.67 14.15 10.03 13.78C10.04 13.77 10.05 13.77 10.06 13.76L15.05 7.52C15.4 7.15 15.39 6.57 15.03 6.21Z" fill="" fill-opacity="1.000000" fill-rule="nonzero"/>
</svg>
