<svg width="35.000000" height="35.000000" viewBox="0 0 35 35" fill="none" xmlns="http://www.w3.org/2000/svg" xmlns:xlink="http://www.w3.org/1999/xlink">
	<desc>
			Created with Pixso.
	</desc>
	<defs/>
	<path d="M10.16 10.16C10.59 9.73 11.28 9.73 11.71 10.16L17.5 15.95L23.28 10.16C23.71 9.73 24.4 9.73 24.83 10.16C25.26 10.59 25.26 11.28 24.83 11.71L19.04 17.5L24.83 23.28C25.26 23.71 25.26 24.4 24.83 24.83C24.4 25.26 23.71 25.26 23.28 24.83L17.5 19.04L11.71 24.83C11.28 25.26 10.59 25.26 10.16 24.83C9.73 24.4 9.73 23.71 10.16 23.28L15.95 17.5L10.16 11.71C9.73 11.28 9.73 10.59 10.16 10.16Z" fill="#131E29" fill-opacity="1.000000" fill-rule="nonzero"/>
</svg>
