<svg width="24.000000" height="24.000000" viewBox="0 0 24 24" fill="none" xmlns="http://www.w3.org/2000/svg" xmlns:xlink="http://www.w3.org/1999/xlink">
	<desc>
			Created with Pixso.
	</desc>
	<defs>
		<clipPath id="clip2_4465">
			<rect rx="0.000000" width="23.000000" height="23.000000" transform="translate(0.500000 0.500000)" fill="white" fill-opacity="0"/>
		</clipPath>
	</defs>
	<g clip-path="url(#clip2_4465)">
		<path d="M10.65 12.89L7.43 9.66C7.29 9.52 7.1 9.44 6.9 9.44C6.7 9.44 6.51 9.52 6.37 9.66C6.22 9.81 6.15 10 6.15 10.2C6.15 10.39 6.22 10.59 6.37 10.73L10.87 15.23C10.93 15.3 11.02 15.35 11.11 15.39C11.2 15.43 11.3 15.45 11.4 15.45C11.49 15.45 11.59 15.43 11.68 15.39C11.77 15.35 11.86 15.3 11.93 15.23L16.43 10.73C16.57 10.59 16.65 10.39 16.65 10.2C16.65 10 16.57 9.81 16.43 9.66C16.29 9.52 16.1 9.44 15.9 9.44C15.7 9.44 15.51 9.52 15.37 9.66L12.15 12.89L11.93 13.09L11.81 13.19C11.73 13.27 11.63 13.32 11.52 13.34C11.44 13.35 11.36 13.35 11.28 13.34C11.17 13.32 11.06 13.27 10.98 13.19L10.87 13.09L10.65 12.89Z" fill="#000000" fill-opacity="0.560000" fill-rule="evenodd"/>
	</g>
</svg>
