<svg width="35" height="31" viewBox="0 0 35 31" fill="none" xmlns="http://www.w3.org/2000/svg">
<path fill-rule="evenodd" clip-rule="evenodd" d="M8.49736 26.6004V15.9174H13.2289C15.2343 16.282 17.2397 17.3873 19.2451 18.6692H22.9198C24.5834 18.7705 25.455 20.4834 23.837 21.609C22.5495 22.5697 20.8489 22.5147 19.1055 22.3556C17.9034 22.2948 17.8521 23.9354 19.1055 23.9412C19.5414 23.976 20.0142 23.8718 20.4273 23.8718C22.6036 23.8689 24.3925 23.4464 25.4892 21.7016L26.039 20.3966L31.5055 17.6449C34.2401 16.7305 36.1828 19.6356 34.1689 21.6582C30.2093 24.5836 26.1501 26.991 21.9968 28.9355C18.9802 30.7989 15.9635 30.7353 12.9497 28.9355L8.49736 26.6004ZM0 14.8902H7.07306V27.6739H0V14.8902Z" fill="#095FCC"/>
<path fill-rule="evenodd" clip-rule="evenodd" d="M21.6721 2.94569C22.7061 1.84904 23.4297 0.902847 25.0249 0.717659C28.0159 0.36754 30.7677 3.481 29.2579 6.54527C28.8278 7.41912 27.9533 8.45501 26.9847 9.47354C25.9222 10.5904 24.7457 11.6871 23.9197 12.5176L21.6721 14.7832L19.8148 12.9661C17.5815 10.7814 13.9382 8.02966 13.8185 4.62106C13.7331 2.23388 15.5904 0.703192 17.7211 0.732127C19.6297 0.755276 20.4301 1.71883 21.6721 2.94569Z" fill="#095FCC"/>
</svg>
