<svg width="35.000000" height="35.000000" viewBox="0 0 35 35" fill="none" xmlns="http://www.w3.org/2000/svg" xmlns:xlink="http://www.w3.org/1999/xlink">
	<desc>
			Created with Pixso.
	</desc>
	<defs/>
	<path d="M2.18 6.56C1.58 6.56 1.09 7.05 1.09 7.65C1.09 8.26 1.58 8.75 2.18 8.75L24.06 8.75C24.66 8.75 25.15 8.26 25.15 7.65C25.15 7.05 24.66 6.56 24.06 6.56L2.18 6.56ZM5.46 16.4C5.46 15.8 5.95 15.31 6.56 15.31L28.43 15.31C29.04 15.31 29.53 15.8 29.53 16.4C29.53 17.01 29.04 17.5 28.43 17.5L6.56 17.5C5.95 17.5 5.46 17.01 5.46 16.4ZM9.84 25.15C9.84 24.55 10.33 24.06 10.93 24.06L32.81 24.06C33.41 24.06 33.9 24.55 33.9 25.15C33.9 25.76 33.41 26.25 32.81 26.25L10.93 26.25C10.33 26.25 9.84 25.76 9.84 25.15Z" fill="#131E29" fill-opacity="0.870000" fill-rule="evenodd"/>
</svg>
