<svg width="24.000000" height="24.000000" viewBox="0 0 24 24" fill="none" xmlns="http://www.w3.org/2000/svg" xmlns:xlink="http://www.w3.org/1999/xlink">
	<desc>
			Created with Pixso.
	</desc>
	<defs>
		<clipPath id="clip2_4395">
			<rect rx="0.000000" width="23.000000" height="23.000000" transform="translate(0.500000 0.500000)" fill="white" fill-opacity="0"/>
		</clipPath>
	</defs>
	<g clip-path="url(#clip2_4395)">
		<path d="M12.15 12.01L15.37 15.23C15.51 15.37 15.7 15.45 15.9 15.45C16.1 15.45 16.29 15.37 16.43 15.23C16.57 15.09 16.65 14.9 16.65 14.7C16.65 14.5 16.57 14.31 16.43 14.17L11.93 9.67C11.86 9.6 11.77 9.54 11.68 9.5C11.59 9.46 11.49 9.44 11.4 9.44C11.3 9.44 11.2 9.46 11.11 9.5C11.02 9.54 10.93 9.6 10.87 9.67L6.37 14.17C6.22 14.31 6.15 14.5 6.15 14.7C6.15 14.9 6.22 15.09 6.37 15.23C6.51 15.37 6.7 15.45 6.9 15.45C7.1 15.45 7.29 15.37 7.43 15.23L10.65 12.01L10.87 11.8L10.98 11.7C11.06 11.63 11.17 11.57 11.28 11.55C11.36 11.54 11.44 11.54 11.52 11.55C11.63 11.57 11.73 11.63 11.81 11.7L11.93 11.8L12.15 12.01Z" fill="#FFFFFF" fill-opacity="1.000000" fill-rule="evenodd"/>
	</g>
</svg>
