<svg width="20" height="15" viewBox="0 0 20 15" fill="none" xmlns="http://www.w3.org/2000/svg">
<path d="M10.0639 -0.00161743C10.0711 -0.00160234 10.0787 -0.00158472 10.0869 -0.00156418L10.1754 -0.00128869C11.2027 0.00248517 16.4091 0.0402238 17.8128 0.41761C18.6733 0.648416 19.351 1.32861 19.581 2.19203C19.7076 2.6664 19.7958 3.29689 19.8573 3.94534L19.8693 4.07522C19.8789 4.18359 19.8879 4.29221 19.8962 4.40042L19.9058 4.53005C19.9879 5.67268 19.9975 6.74194 19.9986 6.97588L19.9988 7.00744C19.9988 7.01002 19.9988 7.01425 19.9988 7.01425V7.03196C19.9988 7.03196 19.9988 7.03619 19.9988 7.03877L19.9986 7.07033C19.9975 7.31311 19.9872 8.45548 19.8962 9.64586L19.8859 9.77586L19.875 9.90601C19.8131 10.6217 19.7202 11.3324 19.581 11.8542C19.351 12.7176 18.6733 13.398 17.8128 13.6286C16.3623 14.0187 10.8514 14.046 10.0869 14.0479L10.0281 14.0481C10.0233 14.0481 10.019 14.0481 10.0154 14.0481L9.99134 14.0481C9.99134 14.0481 9.98582 14.0481 9.98217 14.0481L9.91058 14.0479C9.52427 14.047 7.92571 14.0395 6.25162 13.982L6.03758 13.9744C6.00187 13.9731 5.96615 13.9718 5.93042 13.9704L5.71614 13.9619L5.50235 13.9529C4.11547 13.892 2.79315 13.7922 2.18486 13.6286C1.32434 13.398 0.646714 12.7176 0.416724 11.8542C0.277391 11.3324 0.184503 10.6217 0.122577 9.90601L0.111655 9.77586L0.101396 9.64586C0.0136292 8.49876 0.000888894 7.39625 -0.000960504 7.10034L-0.0011815 7.05798C-0.00119701 7.05417 -0.00120993 7.05066 -0.0012207 7.04745V6.99875C-0.00120993 6.99555 -0.00119701 6.99204 -0.0011815 6.98822L-0.000960504 6.94587C0.000714423 6.67788 0.0113223 5.74834 0.0785055 4.72324L0.0872015 4.59464C0.0887011 4.57314 0.0902261 4.55161 0.0917769 4.53005L0.101396 4.40042C0.109676 4.29221 0.118623 4.18359 0.128292 4.07522L0.140245 3.94534C0.201775 3.29689 0.290058 2.6664 0.416724 2.19203C0.646714 1.32861 1.32434 0.648416 2.18486 0.41761C2.79315 0.254076 4.11547 0.15432 5.50235 0.0934692L5.71614 0.0844111L5.93042 0.0759467C5.96615 0.0745843 6.00187 0.0732459 6.03758 0.0719309L6.25162 0.0643194C7.81885 0.0105193 9.31989 0.000556312 9.82208 -0.00128869L9.91058 -0.00156418C9.9188 -0.00158472 9.92647 -0.00160234 9.93358 -0.00161743H10.0639ZM7.99882 4.01238V10.0338L13.1947 7.02327L7.99882 4.01238Z" fill="#131E29"/>
</svg>
